<svg xmlns="http://www.w3.org/2000/svg" viewBox="0 0 209 195.49"><defs><style>.cls-1{fill:#ffe10b;}</style></defs><g id="Layer_2" data-name="Layer 2"><g id="Layer_2-2" data-name="Layer 2"><path class="cls-1" d="M36.66,92.89A32.42,32.42,0,0,0,52.26,89a29.94,29.94,0,0,0,13-13.85,29,29,0,0,0,1.52-4.22,27.68,27.68,0,0,0-1.3-18.06A29.87,29.87,0,0,0,53.1,39a32.37,32.37,0,0,0-16.44-4.42h0C16.41,34.55,0,19.14,0,.12V0H36.66C64.78,0,88.91,16.08,99.19,39a60.77,60.77,0,0,1,3.06,8.42q.75,2.67,1.25,5.43c.27,1.39.48,2.8.63,4.22a59,59,0,0,1,.37,6.68,60.38,60.38,0,0,1-.43,7.16c-.17,1.43-.38,2.83-.65,4.22q-.48,2.5-1.16,4.93A60.26,60.26,0,0,1,99,89c-.31.69-.64,1.37-1,2-10.87,21.54-34.24,36.45-61.32,36.45H0v-.15c0-19,16.42-34.42,36.66-34.41Z"/><path class="cls-1" d="M142.1,57a28,28,0,0,0,.12,13.84,29,29,0,0,0,1.52,4.22,29.94,29.94,0,0,0,13,13.85,32.15,32.15,0,0,0,15.6,3.94h0c20.24,0,36.66,15.39,36.66,34.41v.15H172.34c-27.08,0-50.45-14.91-61.32-36.45-.35-.68-.68-1.36-1-2a60.23,60.23,0,0,1-4.45-13.85c-.27-1.39-.48-2.79-.65-4.22a60.38,60.38,0,0,1-.43-7.16,59,59,0,0,1,.37-6.68c.15-1.42.36-2.83.63-4.22A59.27,59.27,0,0,1,109.81,39c10.28-22.89,34.41-39,62.53-39H209V.12c0,19-16.41,34.43-36.66,34.43h0A32.37,32.37,0,0,0,155.9,39a29.8,29.8,0,0,0-12.37,13.85A26.87,26.87,0,0,0,142.1,57Z"/><path class="cls-1" d="M16.92,54.87V73.06C16.92,81.83,9.35,89,0,89H0V39H0C9.35,39,16.92,46.09,16.92,54.87Z"/><path class="cls-1" d="M209,39h0c0,7.65-6.6,13.85-14.74,13.85H148.31a26,26,0,0,1,9.9-10.38l.09,0A25.25,25.25,0,0,1,171,39Z"/><path class="cls-1" d="M209,88.8h0C209,81.15,202.4,75,194.26,75H148.31a25.91,25.91,0,0,0,9.9,10.38h0a25.59,25.59,0,0,0,12.91,3.47Z"/><path class="cls-1" d="M209,57V70.88H146.74c-.1-.33-.2-.66-.29-1a24.16,24.16,0,0,1-.8-6.16,24.56,24.56,0,0,1,.69-5.74c.08-.32.17-.62.26-.94Z"/><path class="cls-1" d="M52.8,159.32A17.71,17.71,0,0,1,60.16,166a19.91,19.91,0,0,1,0,19.57,18,18,0,0,1-7.36,6.85A23.6,23.6,0,0,1,41.67,195H24.79V156.9H41.67A24.33,24.33,0,0,1,52.8,159.32Zm-5.46,22.79a9.1,9.1,0,0,0,0-12.57,10,10,0,0,0-6.81-2.21h-3v17h3A10,10,0,0,0,47.34,182.11Z"/><path class="cls-1" d="M103.65,159.32A17.71,17.71,0,0,1,111,166a19.91,19.91,0,0,1,0,19.57,18,18,0,0,1-7.36,6.85A23.6,23.6,0,0,1,92.52,195H75.64V156.9H92.52A24.33,24.33,0,0,1,103.65,159.32Zm-5.46,22.79a9.1,9.1,0,0,0,0-12.57,10,10,0,0,0-6.81-2.21h-3v17h3A10,10,0,0,0,98.19,182.11Z"/><path class="cls-1" d="M126.09,167.73V156.86H145v38.2H132V167.73Z"/><path class="cls-1" d="M159.16,159.33q3.71-3.3,10.51-3.3a18.19,18.19,0,0,1,7.52,1.41,10.88,10.88,0,0,1,4.71,3.82,9.68,9.68,0,0,1,1.59,5.45,8.36,8.36,0,0,1-1.84,5.73,9.33,9.33,0,0,1-4.13,2.8v.21q6.69,2.36,6.69,8.74a10.61,10.61,0,0,1-1.67,5.91,10.91,10.91,0,0,1-4.76,4,17.59,17.59,0,0,1-7.33,1.41q-7.24,0-11.37-3.24t-4.23-10.15h12a4.4,4.4,0,0,0,.59,2.85,2.79,2.79,0,0,0,2.42,1,2.2,2.2,0,0,0,1.67-.71,2.91,2.91,0,0,0-.36-4.08,6,6,0,0,0-3.48-.76h-2.06V171h2q3.79.21,3.79-2.83a2.75,2.75,0,0,0-.58-1.93,1.94,1.94,0,0,0-1.48-.63c-1.38,0-2.06,1.08-2.06,3.24h-12Q155.46,162.63,159.16,159.33Z"/></g></g></svg>