<svg xmlns="http://www.w3.org/2000/svg" viewBox="0 0 58.5 56.15"><defs><style>.cls-1{fill:#ed7d31;}</style></defs><g id="Layer_2" data-name="Layer 2"><g id="Layer_1-2" data-name="Layer 1"><g id="layer1"><path id="path2683" class="cls-1" d="M28.27,0V9.32a3.06,3.06,0,0,1-3.05,3H15.9v4.31h9.41a3.07,3.07,0,0,1,3.06,3.05V30.16a3.08,3.08,0,0,1-3.06,3.06H15.9v2.22h3.6a1,1,0,0,1,1,1,3,3,0,0,0,2.79,3.28,1,1,0,0,1,1,1c0,1.76-.06,3.19-.15,4.49h.75a2.08,2.08,0,0,1,2,2.32l-.11,1.27h2.65a2,2,0,0,1,1.51,3,24.78,24.78,0,0,1-2.55,4.4h27.1a3.08,3.08,0,0,0,3.06-3.07v-50A3.07,3.07,0,0,0,55.44,0ZM26.33.57l-9.86,9.85h8.75a1.09,1.09,0,0,0,1.11-1.1ZM45,4.18a9.31,9.31,0,1,1-9.3,9.3A9.33,9.33,0,0,1,45,4.18Zm0,1.94a7.36,7.36,0,0,0-5,12.72,5.13,5.13,0,0,1,10.11,0A7.36,7.36,0,0,0,45,6.12ZM44.94,7.3H45a3,3,0,1,1-.07,0Zm.05,2a1.11,1.11,0,0,0,0,2.22,1.11,1.11,0,1,0,0-2.22h0Zm0,7.29c-2,.05-3,1.18-3.18,3.58a7.29,7.29,0,0,0,6.38,0c-.13-2.33-1.16-3.59-3.2-3.57ZM3.94,18.63a1.09,1.09,0,0,0-1,.6l11.67,6.43,11.66-6.43a1.08,1.08,0,0,0-1-.6ZM2.83,21.38v8.78a1.1,1.1,0,0,0,1.11,1.11H25.31a1.1,1.1,0,0,0,1.11-1.11V21.38L15.1,27.62a1,1,0,0,1-.94,0ZM31.47,25H44A1,1,0,1,1,44,27H31.47a1,1,0,0,1,0-1.94Zm16.41,0h5.47a1,1,0,1,1,0,1.94H47.88a1,1,0,0,1,0-1.94ZM31.47,29.19h5.47a1,1,0,0,1,0,1.94H31.47a1,1,0,0,1,0-1.94Zm9.38,0h12.5a1,1,0,1,1,0,1.94H40.85a1,1,0,0,1,0-1.94Zm-9.38,4.16h9.38a1,1,0,1,1,0,1.95H31.47a1,1,0,0,1,0-1.95Zm13.54,0h8.34a1,1,0,1,1,0,1.95H45a1,1,0,0,1,0-1.95Zm-34.64,4A4.69,4.69,0,0,1,7,41.18c0,1.53.06,2.84.14,4h15c.08-1.14.12-2.45.14-4a4.66,4.66,0,0,1-3.39-3.8H10.37ZM45,37.45h0a1,1,0,1,1-1,1,1,1,0,0,1,1-1Zm4.17,0h0a1,1,0,1,1-1,1,1,1,0,0,1,1-1Zm4.17,0h0a1,1,0,1,1-1,1,1,1,0,0,1,1-1Zm-16.64.08h4.17a1,1,0,1,1,0,1.94H36.68a1,1,0,1,1,0-1.94ZM12,40.65h5.2a1,1,0,1,1,0,2H12a1,1,0,1,1,0-2Zm19.44,1H44a1,1,0,1,1,0,2H31.47a1,1,0,0,1,0-2Zm16.41,0h5.47a1,1,0,1,1,0,2H47.88a1,1,0,0,1,0-2ZM4.4,47.11a29.8,29.8,0,0,0,.27,3.75c0,.28.18.38.27.38H24.32c.09,0,.24-.1.27-.38.13-1.2.24-2.64.26-3.75ZM2,54.36a.9.9,0,0,0,.78.52H3.82a1,1,0,0,0,.84-.53l.69-1.16H4.94A2.31,2.31,0,0,1,2.73,51l0-.28H0Zm24.6-3.54,0,.21a2.31,2.31,0,0,1-2.21,2.16h-.44l.65,1.09a1.07,1.07,0,0,0,.92.54h1.08a1,1,0,0,0,.86-.53l1.87-3.47ZM10.36,53.19c.33.34.67.68,1.08,1.06a5,5,0,0,0,6.38,0c.41-.37.74-.72,1.07-1.06Z"/></g></g></g></svg>