<svg xmlns="http://www.w3.org/2000/svg" viewBox="0 0 78 78"><defs><style>.cls-1{fill:#ed7d31;}</style></defs><g id="Layer_2" data-name="Layer 2"><g id="Layer_1-2" data-name="Layer 1"><g id="Monitor"><path class="cls-1" d="M50,76H46V70H32v6H28a1,1,0,0,0,0,2H50a1,1,0,0,0,0-2Z"/><path class="cls-1" d="M0,61a7,7,0,0,0,7,7H71a7,7,0,0,0,7-7V60H0Zm36,2h6a1,1,0,0,1,0,2H36a1,1,0,0,1,0-2Z"/><path class="cls-1" d="M71,10H60v4H71a3,3,0,0,1,3,3V53a1,1,0,0,1-1,1H5a1,1,0,0,1-1-1V17a3,3,0,0,1,3-3H18V10H7a7,7,0,0,0-7,7V58H78V17A7,7,0,0,0,71,10Z"/><rect class="cls-1" x="40" y="10" width="4" height="4"/><path class="cls-1" d="M6,17V52H18V16H7A1,1,0,0,0,6,17Z"/><rect class="cls-1" x="40" y="16" width="4" height="36"/><path class="cls-1" d="M72,17a1,1,0,0,0-1-1H60V52H72Z"/><path class="cls-1" d="M31,0H21a1,1,0,0,0-1,1V4h5a1,1,0,0,1,0,2H20v4h5a1,1,0,0,1,0,2H20v4h5a1,1,0,0,1,0,2H20v4h5a1,1,0,0,1,0,2H20v4h5a1,1,0,0,1,0,2H20v4h5a1,1,0,0,1,0,2H20v4h5a1,1,0,0,1,0,2H20v4h5a1,1,0,0,1,0,2H20v4H31Z"/><path class="cls-1" d="M38,1a1,1,0,0,0-1-1H33V52h5Z"/><path class="cls-1" d="M52.89.55A1,1,0,0,0,51.47.19a1,1,0,0,0-.36.36L46.38,10H57.62Z"/><rect class="cls-1" x="53" y="12" width="5" height="40"/><rect class="cls-1" x="46" y="12" width="5" height="40"/></g></g></g></svg>