<svg xmlns="http://www.w3.org/2000/svg" viewBox="0 0 356.06 274.66"><defs><style>.cls-1,.cls-2{fill:#ffe10b;}.cls-2{font-size:38px;font-family:Poppins-ExtraBold, Poppins;font-weight:800;letter-spacing:0.1em;}</style></defs><g id="Layer_2" data-name="Layer 2"><g id="Layer_2-2" data-name="Layer 2"><path class="cls-1" d="M306.72.66s-62.78,51.52-61.78,117.67a5.23,5.23,0,0,1-7.68,4.66,311.43,311.43,0,0,0-80.08-28.87,5.24,5.24,0,0,1-3.83-6.82C163.31,58.17,197.94-7.23,306.72.66Z"/><path class="cls-1" d="M354.61,220.8C290.13,168.47,216,129.62,110,135.28c-15.23.87-22.81,5.68-22.69,23,.34,8.74,2.54,16,6.38,22.05a41.48,41.48,0,0,0,16.23,14.39c11,4.16,20.22,3.42,26.65-5.18A21.2,21.2,0,0,0,139,168c-3.82-8.08-11.63-11.39-22.6-10.92a4.93,4.93,0,0,1-5.2-4.61v-.12a4.71,4.71,0,0,1,4.21-4.91c12.32-1.32,22.31-1,29.51,1.27a14.89,14.89,0,0,1,10.11,11.6c4,22.88,0,41.08-20.22,49.7a39.32,39.32,0,0,1-15.35,2.74c9.88-1.28,16.68-5,21.22-8.78a30.44,30.44,0,0,0,7.83-9.59.36.36,0,0,1,.05-.09h0a.21.21,0,0,0,0-.06h0c-.56.54-10.95,10.27-30.53,10.27-9.61,0-20.27-2.56-31.71-7.62l-1-.46A36.89,36.89,0,0,1,72.5,187c-18.23-20.84-27.28-47.5-30.39-77.47A9.87,9.87,0,0,1,50.4,98.86C173,79.4,271.59,128.78,355.81,219.51A.88.88,0,0,1,354.61,220.8Z"/><path class="cls-1" d="M148.53,194.39v0c-1.24,2.05-12.42,19.11-42,16.73h0a95,95,0,0,1-22.3-4.75c-49-16.17-81.34-7.78-81.34-7.78s36.6-19,80.14-1.14c.88.37,1.78.75,2.66,1.14C128,217.36,146.68,196.59,148.53,194.39Z"/><text class="cls-2" transform="translate(0 251.26)">GRIND PROJECT</text></g></g></svg>